<svg xmlns="http://www.w3.org/2000/svg" width="12" height="20" viewBox="0 0 12 20">
  <metadata><?xpacket begin="﻿" id="W5M0MpCehiHzreSzNTczkc9d"?>
<x:xmpmeta xmlns:x="adobe:ns:meta/" x:xmptk="Adobe XMP Core 5.6-c138 79.159824, 2016/09/14-01:09:01        ">
   <rdf:RDF xmlns:rdf="http://www.w3.org/1999/02/22-rdf-syntax-ns#">
      <rdf:Description rdf:about=""/>
   </rdf:RDF>
</x:xmpmeta>
                                                                                                    
                                                                                                    
                                                                                                    
                                                                                                    
                                                                                                    
                                                                                                    
                                                                                                    
                                                                                                    
                                                                                                    
                                                                                                    
                                                                                                    
                                                                                                    
                                                                                                    
                                                                                                    
                                                                                                    
                                                                                                    
                                                                                                    
                                                                                                    
                                                                                                    
                                                                                                    
                           
<?xpacket end="w"?></metadata>
<defs>
    <style>
      .cls-1 {
        fill: #555;
        fill-rule: evenodd;
      }
    </style>
  </defs>
  <path id="fa-mobile-phone" class="cls-1" d="M250.25,5891a1.25,1.25,0,1,1-1.25-1.25A1.252,1.252,0,0,1,250.25,5891Zm3.25-2.5a0.511,0.511,0,0,1-.5.5h-8a0.511,0.511,0,0,1-.5-0.5v-11a0.511,0.511,0,0,1,.5-0.5h8a0.511,0.511,0,0,1,.5.5v11Zm-3-13.25a0.247,0.247,0,0,1-.25.25h-2.5a0.25,0.25,0,0,1,0-.5h2.5A0.247,0.247,0,0,1,250.5,5875.25Zm4.5-.25a2.016,2.016,0,0,0-2-2h-8a2.016,2.016,0,0,0-2,2v16a2.016,2.016,0,0,0,2,2h8a2.016,2.016,0,0,0,2-2v-16Z" transform="translate(-243 -5873)"/>
</svg>
